<?xml version="1.0" encoding="UTF-8"?>
<svg xmlns="http://www.w3.org/2000/svg" version="1.1" xmlns:xlink="http://www.w3.org/1999/xlink" viewBox="0 0 47 44">
  <defs>
    <style>
      .cls-1 {
        fill-opacity: .2;
      }

      .cls-1, .cls-2, .cls-3, .cls-4, .cls-5, .cls-6, .cls-7, .cls-8, .cls-9, .cls-10, .cls-11, .cls-12 {
        stroke-width: 0px;
      }

      .cls-1, .cls-3, .cls-6 {
        fill: #000;
      }

      .cls-13 {
        font-family: Arial-BoldMT, Arial;
        font-size: 18px;
        font-weight: 700;
      }

      .cls-13, .cls-9, .cls-14, .cls-12 {
        fill: #fff;
      }

      .cls-2 {
        fill: url(#linear-gradient);
      }

      .cls-3 {
        fill-opacity: .1;
      }

      .cls-4 {
        fill: url(#linear-gradient-6);
      }

      .cls-5 {
        fill: url(#linear-gradient-5);
      }

      .cls-6 {
        fill-opacity: .2;
      }

      .cls-7 {
        fill: url(#linear-gradient-2);
      }

      .cls-8 {
        fill: url(#linear-gradient-3);
      }

      .cls-9 {
        fill-rule: evenodd;
      }

      .cls-9, .cls-12 {
        fill-opacity: .2;
      }

      .cls-14 {
        font-family: MyriadPro-Regular, 'Myriad Pro';
        font-size: 12px;
      }

      .cls-10 {
        fill: silver;
        fill-opacity: 0;
      }

      .cls-11 {
        fill: url(#linear-gradient-4);
      }
    </style>
    <linearGradient id="linear-gradient" x1="0" y1="-721.1" x2="47" y2="-721.1" gradientTransform="translate(0 -710.1) scale(1 -1)" gradientUnits="userSpaceOnUse">
      <stop offset="0" stop-color="#6366f1"/>
      <stop offset=".5" stop-color="#8b5cf6"/>
      <stop offset="1" stop-color="#d946ef"/>
    </linearGradient>
    <linearGradient id="linear-gradient-2" x1="0" y1="-725.2" x2="47" y2="-725.2" gradientTransform="translate(0 -710.1) scale(1 -1)" gradientUnits="userSpaceOnUse">
      <stop offset="0" stop-color="#6366f1"/>
      <stop offset=".5" stop-color="#8b5cf6"/>
      <stop offset="1" stop-color="#d946ef"/>
    </linearGradient>
    <linearGradient id="linear-gradient-3" x1="0" y1="-745.2" x2="47" y2="-745.2" gradientTransform="translate(0 -710.1) scale(1 -1)" gradientUnits="userSpaceOnUse">
      <stop offset="0" stop-color="#6366f1"/>
      <stop offset=".5" stop-color="#8b5cf6"/>
      <stop offset="1" stop-color="#d946ef"/>
    </linearGradient>
    <linearGradient id="linear-gradient-4" x1="0" y1="-729.8" x2="47" y2="-729.8" gradientTransform="translate(0 -710.1) scale(1 -1)" gradientUnits="userSpaceOnUse">
      <stop offset="0" stop-color="#6366f1"/>
      <stop offset=".5" stop-color="#8b5cf6"/>
      <stop offset="1" stop-color="#d946ef"/>
    </linearGradient>
    <linearGradient id="linear-gradient-5" x1="0" y1="-745.4" x2="47" y2="-745.4" gradientTransform="translate(0 -710.1) scale(1 -1)" gradientUnits="userSpaceOnUse">
      <stop offset="0" stop-color="#6366f1"/>
      <stop offset=".5" stop-color="#8b5cf6"/>
      <stop offset="1" stop-color="#d946ef"/>
    </linearGradient>
    <linearGradient id="linear-gradient-6" x1="0" y1="-731.4" x2="47" y2="-731.4" gradientTransform="translate(0 -710.1) scale(1 -1)" gradientUnits="userSpaceOnUse">
      <stop offset="0" stop-color="#6366f1"/>
      <stop offset=".5" stop-color="#8b5cf6"/>
      <stop offset="1" stop-color="#d946ef"/>
    </linearGradient>
  </defs>
  <g id="Layer_1" data-name="Layer 1">
    <path class="cls-2" d="M10.2,22l-6.1-9.7L23,0l-.5,10.7-12.3,11.3Z"/>
    <path class="cls-7" d="M22.5,10.7L23,0l19.4,8.7-4.1,17.4-26.1,4.1-2-8.2,12.3-11.3Z"/>
    <path class="cls-8" d="M31.2,44l-18.9-13.8,26.1-4.1,4.6,4.6-11.8,13.3Z"/>
    <path class="cls-11" d="M38.3,26.1l4.6,4.6,4.1-12.8-4.6-9.2-4.1,17.4Z"/>
    <path class="cls-5" d="M12.3,30.2l18.9,13.8-18.9-2.6L0,26.6l12.3,3.6Z"/>
    <path class="cls-4" d="M4.1,12.3L0,26.6l12.3,3.6-2-8.2-6.2-9.7Z"/>
    <path class="cls-1" d="M31.2,44l-18.9-13.8,26.1-4.1,4.6,4.6-11.8,13.3Z"/>
    <path class="cls-3" d="M38.3,26.1l4.6,4.6,4.1-12.8-4.6-9.2-4.1,17.4Z"/>
    <path class="cls-6" d="M12.3,30.2l18.9,13.8-18.9-2.6L0,26.6l12.3,3.6Z"/>
    <path class="cls-10" d="M4.1,12.3L0,26.6l12.3,3.6-2-8.2-6.2-9.7Z"/>
    <path class="cls-12" d="M10.2,22l-6.1-9.7L23,0l-.5,10.7-12.3,11.3Z"/>
    <path class="cls-9" d="M10.2,22l12.3-11.3L23,0,4.1,12.3l6.1,9.7ZM10.3,21.5l11.9-10.9.5-10L4.5,12.4l5.8,9.1Z"/>
    <path class="cls-9" d="M22.8,10.9l-12.2,11.2,1.9,7.7,25.6-4,4-16.9L23.3.5l-.5,10.4ZM22.5,10.7l-12.3,11.3,2,8.2,26.1-4.1,4.1-17.4L23,0l-.5,10.7Z"/>
    <path class="cls-9" d="M31.1,43.6l11.4-12.9-4.3-4.3-25.2,4,18.1,13.2ZM31.2,44l11.7-13.3-4.6-4.6-26.1,4.1,19,13.8Z"/>
    <path class="cls-9" d="M42.9,30.7l4.1-12.8-4.6-9.2-4.1,17.4,4.6,4.6ZM38.7,26l4.1,4.1,3.9-12.2-4.2-8.3-3.8,16.4Z"/>
    <path class="cls-9" d="M12.1,30.5L.9,27.2l11.5,14,17.6,2.3-17.9-13ZM12.3,30.2L0,26.6l12.3,14.8,18.9,2.6-18.9-13.8Z"/>
    <path class="cls-9" d="M.4,26.4l11.5,3.3-1.9-7.6-5.8-9.1L.4,26.4ZM0,26.6l12.3,3.6-2-8.2-6.1-9.7L0,26.6Z"/>
  </g>
  <g id="Layer_2" data-name="Layer 2">
    <text class="cls-13" transform="translate(9 29.7)"><tspan x="0" y="0">Bio</tspan></text>
    <text class="cls-14" transform="translate(28 17.2)"><tspan x="0" y="0">AI</tspan></text>
  </g>
</svg>