<?xml version="1.0" encoding="UTF-8"?>
<svg id="Layer_1" data-name="Layer 1" xmlns="http://www.w3.org/2000/svg" version="1.1" xmlns:v="https://vecta.io/nano" viewBox="0 0 269.1 62">
  <defs>
    <style>
      .cls-1 {
        fill: #000;
        font-size: 18px;
      }

      .cls-1, .cls-2, .cls-3, .cls-4 {
        isolation: isolate;
      }

      .cls-1, .cls-3 {
        font-family: MyriadPro-It, 'Myriad Pro';
        font-style: italic;
      }

      .cls-3 {
        font-size: 14px;
      }

      .cls-3, .cls-4, .cls-5, .cls-6 {
        fill: #fff;
      }

      .cls-7 {
        fill: #3e4265;
      }

      .cls-7, .cls-8, .cls-5 {
        stroke-width: 0px;
      }

      .cls-8 {
        fill: #6366f1;
      }

      .cls-9 {
        fill: none;
        stroke-linecap: round;
        stroke-linejoin: round;
        stroke-width: 3.1px;
      }

      .cls-9, .cls-4, .cls-6 {
        stroke: #fff;
      }

      .cls-4 {
        opacity: .2;
      }

      .cls-4, .cls-6 {
        stroke-miterlimit: 10;
      }
    </style>
  </defs>
  <g id="Layer_1-2" data-name="Layer 1">
    <g id="Layer_1-2" data-name="Layer 1-2">
      <path class="cls-8" d="M40.5,0h190.2C251.8,0,269.1,13.7,269.1,30.5h0c0,16.8-17.3,30.5-38.4,30.5H40.5c-21.2,0-38.4-13.7-38.4-30.5h0C2.1,13.7,19.3,0,40.5,0Z"/>
      <g>
        <path class="cls-5" d="M54.2,8h71.2c16.1,0,29.1,10.1,29.1,22.5h0c0,12.4-13.1,22.5-29.1,22.5H54.2c-16.1,0-29.1-10.1-29.1-22.5h0c0-12.4,13.1-22.5,29.1-22.5Z"/>
        <path class="cls-7" d="M53.3,30.5c0,2.3,2.5,4.2,5.4,4.2s5.4-1.9,5.4-4.2-2.5-4.2-5.4-4.2-5.4,1.9-5.4,4.2ZM58.8,28c1.8,0,3.2,1.1,3.2,2.5s-1.4,2.5-3.2,2.5-3.2-1.1-3.2-2.5,1.4-2.5,3.2-2.5ZM57.7,36.3h2.2v2.5h-2.2v-2.5ZM57.7,22.2h2.2v2.5h-2.2v-2.5ZM48,29.7h3.2v1.7h-3.2v-1.7ZM66.3,29.7h3.2v1.7h-3.2v-1.7Z"/>
        <path class="cls-7" d="M50.3,35.8l2.3-1.8,1.6,1.2-2.3,1.8-1.6-1.2Z"/>
        <path class="cls-7" d="M63.3,25.8l2.3-1.8,1.6,1.2-2.3,1.8-1.6-1.2h0Z"/>
        <path class="cls-7" d="M52.7,27l-2.3-1.8,1.6-1.2,2.3,1.8-1.6,1.2Z"/>
        <path class="cls-7" d="M67.2,35.8l-1.6,1.2-2.3-1.8,1.6-1.2,2.3,1.8Z"/>
      </g>
      <g class="cls-2">
        <g class="cls-2">
          <text class="cls-1" transform="translate(75.4 36.3)"><tspan x="0" y="0">Consult</tspan></text>
        </g>
      </g>
    </g>
    <g id="Layer_2" data-name="Layer 2">
      <g class="cls-2">
        <g class="cls-2">
          <text class="cls-3" transform="translate(185.8 35.5)"><tspan x="0" y="0">Collaborate</tspan></text>
        </g>
      </g>
    </g>
  </g>
  <g id="Layer_2-2" data-name="Layer 2-2">
    <g id="underlay">
      <circle class="cls-4" cx="170.9" cy="30.1" r="10.9"/>
      <path class="cls-6" d="M174,30.9l-1.7,1.7c-.2,0-.3,0-.5,0-1-.2-2,.6-2,.6l-1.7-1.7c0-.2,0-.3,0-.5,0-.3,0-.8-.5-1.7l1.8-1.8c.2,0,.3,0,.5.1.3,0,1,.3,1.9-.6l1.8,1.7c0,.2,0,.3,0,.5,0,.6,0,1.2.4,1.8h0Z"/>
    </g>
    <g id="icons">
      <path class="cls-9" d="M169.7,29.7l.7-.7h.2c.3,0,.7-.1.9-.3l1.3-1.3v-.2c0-.2-.2-.3-.4-.2h0l.2-.2c0-.1,0-.3,0-.4s-.3-.1-.4,0l.2-.2c0-.1,0-.3,0-.4s-.3-.1-.4,0h0l-.2.2c0-.1,0-.3,0-.4h-.4l-.7.7c0-.2,0-.4-.3-.3,0,0,0,0-.2.1,0,0-.6.7-.8,1,0,.2,0,.5,0,.9l-.7.7"/>
      <line class="cls-9" x1="171.7" y1="25.9" x2="170.6" y2="27"/>
      <line class="cls-9" x1="170.6" y1="26.2" x2="170.2" y2="26.6"/>
      <line class="cls-9" x1="172.1" y1="26.3" x2="171" y2="27.4"/>
      <line class="cls-9" x1="172.3" y1="27" x2="171.5" y2="27.8"/>
      <path class="cls-9" d="M171.3,28.8l.7.7v.2c0,.3,0,.7.3.9l1.3,1.3h.2c.2,0,.3-.2.2-.3h0c0-.1.2.1.2.1h.4v-.4l.2.2c0,.1.3.1.4,0s0-.3,0-.4h0l-.2-.2c0,.1.3.1.4,0h0v-.4l-.7-.7c.2,0,.4-.1.3-.3,0,0,0-.1,0-.2,0,0-.7-.6-1-.8-.2,0-.5-.1-.9,0l-.7-.7"/>
      <line class="cls-9" x1="175.1" y1="30.8" x2="174" y2="29.7"/>
      <line class="cls-9" x1="174.8" y1="29.7" x2="174.4" y2="29.3"/>
      <line class="cls-9" x1="174.7" y1="31.2" x2="173.6" y2="30.2"/>
      <line class="cls-9" x1="174" y1="31.4" x2="173.2" y2="30.6"/>
      <path class="cls-9" d="M172.2,30.4l-.7.7h-.2c-.3,0-.7.1-.9.3l-1.3,1.3v.2c0,.2.2.3.3.2h0l-.2.2c0,0,0,.3,0,.4,0,0,.3,0,.4,0l-.2.2c0,0,0,.3,0,.4,0,0,.3,0,.4,0h0l.2-.2c0,0,0,.3,0,.4h.4l.7-.7c0,.2,0,.4.3.3,0,0,0,0,.2,0,0,0,.6-.7.8-1,0-.2,0-.5,0-.9l.7-.7"/>
      <line class="cls-9" x1="170.1" y1="34.1" x2="171.2" y2="33"/>
      <line class="cls-9" x1="171.2" y1="33.8" x2="171.6" y2="33.5"/>
      <line class="cls-9" x1="169.7" y1="33.7" x2="170.8" y2="32.6"/>
      <line class="cls-9" x1="169.5" y1="33.1" x2="170.4" y2="32.2"/>
      <path class="cls-9" d="M170.5,31.3l-.7-.7v-.2c0-.3,0-.6-.3-.9l-1.3-1.3h-.2c-.2,0-.3.2-.2.3h0c0,.1-.2-.1-.2-.1,0-.1-.3-.1-.4,0s0,.3,0,.4l-.2-.2c0-.1-.3-.1-.4,0s0,.3,0,.4h0l.2.2c0-.1-.3-.1-.4,0h0v.4l.7.7c-.2,0-.4.1-.3.3,0,0,0,.1,0,.2,0,0,.7.6,1,.8.2,0,.5.1.9,0l.7.7"/>
      <line class="cls-9" x1="166.7" y1="29.2" x2="167.8" y2="30.3"/>
      <line class="cls-9" x1="167" y1="30.3" x2="167.4" y2="30.7"/>
      <line class="cls-9" x1="167.1" y1="28.8" x2="168.2" y2="29.9"/>
      <line class="cls-9" x1="167.8" y1="28.6" x2="168.6" y2="29.5"/>
    </g>
  </g>
</svg>